<svg xmlns="http://www.w3.org/2000/svg" width="378.058" height="378.058" viewBox="0 0 378.058 378.058">
  <g id="Group_2" data-name="Group 2" transform="translate(-495.176 -2154.177)">
    <g id="Ellipse_4" data-name="Ellipse 4" transform="translate(873.235 2200.762) rotate(98)" fill="none" stroke="#e6e6e6" stroke-linecap="round" stroke-width="9">
      <circle cx="167.365" cy="167.365" r="167.365" stroke="none"/>
      <circle cx="167.365" cy="167.365" r="162.865" fill="none"/>
    </g>
    <circle id="Ellipse_5" data-name="Ellipse 5" cx="136.5" cy="136.5" r="136.5" transform="translate(548 2207)" fill="#373535"/>
    <g id="Ellipse_6" data-name="Ellipse 6" transform="translate(576 2236)" fill="#373535" stroke="#e6e6e6" stroke-width="12">
      <circle cx="108" cy="108" r="108" stroke="none"/>
      <circle cx="108" cy="108" r="102" fill="none"/>
    </g>
    <path id="Path_2" data-name="Path 2" d="M197.88,89.261A29.573,29.573,0,0,0,195.3,83a21.17,21.17,0,0,0-4.336-5.2,51.769,51.769,0,0,0-5.073-4.09,49.453,49.453,0,0,0-6.178-3.478q-3.925-1.924-6.216-2.864t-6.63-2.577q-3.845-1.472-5.728-2.249t-4.949-2.21a28.85,28.85,0,0,1-4.582-2.536,36.007,36.007,0,0,1-3.232-2.7,9.211,9.211,0,0,1-2.414-3.4A11,11,0,0,1,150.181,38.7q4.909-3.517,12.683-3.518a27.267,27.267,0,0,1,7,.941,36.586,36.586,0,0,1,6.094,2.127,42.334,42.334,0,0,1,4.788,2.618q2.25,1.432,3.191,2.168c.627.491,1.025.818,1.187.982a2.609,2.609,0,0,0,2.208.573,2.233,2.233,0,0,0,1.883-1.309l6.629-11.946a2.367,2.367,0,0,0-.409-3.109c-.328-.327-.735-.709-1.23-1.145s-1.554-1.227-3.191-2.373a39.491,39.491,0,0,0-5.194-3.068,52.539,52.539,0,0,0-7.12-2.74,45.386,45.386,0,0,0-9.041-1.882V2.618A2.518,2.518,0,0,0,167.037,0H155.991a2.515,2.515,0,0,0-1.841.777,2.516,2.516,0,0,0-.777,1.841V17.346Q140.527,19.8,132.508,28.309a27.978,27.978,0,0,0-8.018,19.8,28.412,28.412,0,0,0,.7,6.381,32.67,32.67,0,0,0,1.718,5.442,20.024,20.024,0,0,0,2.9,4.746,50.822,50.822,0,0,0,3.559,4.009,28.894,28.894,0,0,0,4.377,3.476q2.7,1.8,4.624,2.906t5.113,2.534q3.191,1.433,5.033,2.169t5.033,2.044q4.418,1.718,6.545,2.66t5.4,2.618a22.416,22.416,0,0,1,4.786,3.068,15.377,15.377,0,0,1,2.741,3.436,8.289,8.289,0,0,1,1.229,4.337,11.454,11.454,0,0,1-5.033,9.979,19.833,19.833,0,0,1-11.659,3.519,28.585,28.585,0,0,1-6.054-.653,42.746,42.746,0,0,1-19.882-10.229l-.164-.164a2.029,2.029,0,0,0-1.963-.734,2.542,2.542,0,0,0-1.882.983l-8.428,11.045a2.484,2.484,0,0,0,.164,3.354q.41.491,1.432,1.473a47.347,47.347,0,0,0,3.805,3.071,50.21,50.21,0,0,0,14.36,7.568,51.657,51.657,0,0,0,10.432,2.534V144A2.654,2.654,0,0,0,156,146.617h11.046A2.516,2.516,0,0,0,169.66,144V129.681a35.13,35.13,0,0,0,21.151-11.168,31.129,31.129,0,0,0,8.142-21.559A26.9,26.9,0,0,0,197.88,89.261Z" transform="translate(523.424 2270.8)" fill="#e6e6e6"/>
  </g>
</svg>
